<svg width="192" height="36" viewBox="0 0 192 36" fill="none" xmlns="http://www.w3.org/2000/svg">
<path fill-rule="evenodd" clip-rule="evenodd" d="M36 0H0V36H36V0ZM75 0H39V36H75V0ZM114 0H78V36H114V0ZM153 0H117V36H153V0ZM192 0H156V36H192V0ZM23.4773 22.8748L18.0023 24.2623L25.7648 29.9248L23.4773 22.8748ZM20.9648 15.1498H30.6023L22.8398 20.7748L18.0398 24.2248L10.2398 29.8498L13.2023 20.7748L5.40234 15.1498H15.0398L18.0023 6.07483L20.9648 15.1498ZM62.4773 22.8748L57.0023 24.2623L64.7648 29.9248L62.4773 22.8748ZM59.9648 15.1498H69.6023L61.8398 20.7748L57.0398 24.2248L49.2398 29.8498L52.2023 20.7748L44.4023 15.1498H54.0398L57.0023 6.07483L59.9648 15.1498ZM101.477 22.8748L96.0023 24.2623L103.765 29.9248L101.477 22.8748ZM98.9648 15.1498H108.602L100.84 20.7748L96.0398 24.2248L88.2398 29.8498L91.2023 20.7748L83.4023 15.1498H93.0398L96.0023 6.07483L98.9648 15.1498ZM140.477 22.8748L135.002 24.2623L142.765 29.9248L140.477 22.8748ZM137.965 15.1498H147.602L139.84 20.7748L135.04 24.2248L127.24 29.8498L130.202 20.7748L122.402 15.1498H132.04L135.002 6.07483L137.965 15.1498ZM179.477 22.8748L174.002 24.2623L181.765 29.9248L179.477 22.8748ZM176.965 15.1498H186.602L178.84 20.7748L174.04 24.2248L166.24 29.8498L169.202 20.7748L161.402 15.1498H171.04L174.002 6.07483L176.965 15.1498Z" fill="black"/>
</svg>
